<?xml version="1.0" encoding="utf-8"?>
<!-- Generator: Adobe Illustrator 19.2.1, SVG Export Plug-In . SVG Version: 6.00 Build 0)  -->
<svg version="1.1" id="Layer_1" xmlns="http://www.w3.org/2000/svg" xmlns:xlink="http://www.w3.org/1999/xlink" x="0px" y="0px"
	 viewBox="0 0 35 35" style="enable-background:new 0 0 35 35;" xml:space="preserve">
<style type="text/css">
	.st0{opacity:0.4;}
	.st1{opacity:0.5;}
	.st2{fill:#FFFFFF;}
</style>
<circle class="st0" cx="17.5" cy="17.5" r="17.5"/>
<g class="st1">
	<path class="st2" d="M17.5,0.5c9.4,0,17,7.6,17,17s-7.6,17-17,17s-17-7.6-17-17S8.1,0.5,17.5,0.5 M17.5,0C7.8,0,0,7.8,0,17.5
		S7.8,35,17.5,35S35,27.2,35,17.5S27.2,0,17.5,0L17.5,0z"/>
</g>
<rect x="9" y="17" class="st2" width="17" height="1"/>
<rect x="9" y="17" transform="matrix(2.246984e-11 1 -1 2.246984e-11 35 -3.934488e-10)" class="st2" width="17" height="1"/>
</svg>
